<?xml version="1.0" encoding="UTF-8"?>
<svg id="Capa_1" data-name="Capa 1" xmlns="http://www.w3.org/2000/svg" viewBox="0 0 933.41 397.95">
  <defs>
    <style>
      .cls-1 {
        fill: #f8ad35;
      }

      .cls-2, .cls-3 {
        fill: #fff;
      }

      .cls-4 {
        fill: #f18e90;
      }

      .cls-5 {
        font-size: 243.61px;
      }

      .cls-5, .cls-3, .cls-6 {
        stroke-miterlimit: 10;
        stroke-width: 2px;
      }

      .cls-5, .cls-6 {
        fill: #350f28;
        font-family: MoonFlower, 'Moon Flower';
        stroke: #350d27;
      }

      .cls-3 {
        stroke: #fff;
      }

      .cls-7 {
        fill: #fbbd5d;
      }

      .cls-8 {
        opacity: .54;
      }

      .cls-6 {
        font-size: 182.98px;
      }

      .cls-9 {
        fill: #350d27;
      }
    </style>
  </defs>
  <g>
    <path class="cls-7" d="M804.05,85.46c-2.33-.2-3.38-.27-14.6-1.11-20.75-1.55-20.62-1.56-21.41-1.61-29.02-1.61-59.76,23.8-68.16,30.75-5.57,4.6-8.24,7.55-10.11,9.88-5.26,6.54-7.85,12.63-14.1,30.1-4.7,13.12-7.05,19.68-7.22,20.78-2.06,13.42,1.8,26.98,6.23,39.84,1.63,4.74,3.87,11.28,8.34,19.29,5.09,9.13,10.61,19.02,21.37,26.15,4.14,2.74,3.57,1.44,25.52,9.73,17.7,6.68,18.43,7.67,25.42,9.3,10.1,2.37,18.36,2.6,25.69,2.81,7.42,.21,14.28,.22,23.4-.96,9.56-1.23,22.97-2.97,37.7-11.06,9.41-5.17,15.48-10.81,20.35-15.33,2.79-2.59,13.13-12.3,20.73-24.76,17.01-27.88,13.76-58.83,13.54-60.74-6.09-51.47-54.93-78.32-66.57-80.1-1.01-.16-11.89-1.75-26.1-2.97Z"/>
    <path class="cls-1" d="M799.14,89.74c-10.5,1.4-21.51-6.11-31.26-2.18-4.81,1.94-8.06,6.3-12.68,8.61-3.37,1.68-7.27,2.17-10.79,3.55s-6.91,4.19-6.94,7.78c-.03,4.38,4.89,7.36,9.46,8.18s9.46,.4,13.72,2.17c3.84,1.59,6.71,4.78,10.5,6.46,3.98,1.77,8.58,1.73,12.83,2.81,14.08,3.57,21.18,17.92,31.65,27.47,7.45,6.81,17.13,11.5,23.23,19.41,10.05,13.04,7.76,30.97,3.77,46.62-1.8,7.06-3.87,14.36-2.45,21.5,1.42,7.14,7.54,14.07,15.26,14,10.13-.08,15.76-10.86,18.71-19.98,4.75-14.69,8.7-29.6,12.64-44.5,1.52-5.75,3.05-11.54,3.28-17.46,.37-9.48-2.62-18.76-5.57-27.83-1.49-4.59-3.03-9.26-5.95-13.19-2.92-3.93-7.06-6.88-11.13-9.77-21.6-15.33-44.06-31.04-70.44-36.73"/>
    <path class="cls-9" d="M751.9,80.36c-19.98,3.56-39.35,12.32-54.54,25.88-14.17,12.64-24.54,29.17-30.4,47.18-4.14,12.73-6.27,26.22-6.08,39.61,.15,10.18,2.03,20.21,4.92,29.95,1.91,6.44,4.38,12.72,7.73,18.56s7.83,11.7,12.79,16.67c7.34,7.35,15.75,13.7,24.84,18.72,10.4,5.74,21.74,8.85,33.34,11.14,14.17,2.8,28.65,4.05,43.04,2.51,24.99-2.67,48.87-12.57,68.67-28,9.75-7.6,18.38-16.59,25.54-26.68,6.84-9.63,12.16-20.22,14.77-31.79,2.19-9.7,3.55-19.68,2.84-29.64-.37-5.2-1.53-10.41-2.9-15.42-3.21-11.74-8.26-23.02-14.75-33.31-4.08-6.48-8.68-12.95-14.21-18.28-4.57-4.41-9.94-7.97-15.74-10.53-6.33-2.78-12.95-4.99-19.47-7.28-6.33-2.23-12.71-4.31-19.21-5.97-13.02-3.32-26.56-4.79-39.98-5-7.11-.11-14.18,.47-21.18,1.69-1.33,.23-2.08,1.86-1.75,3.08,.39,1.41,1.74,1.98,3.08,1.75,13.24-2.3,26.85-1.69,40.14-.13,13.2,1.55,25.91,5.28,38.4,9.7,6.04,2.14,12.26,4.12,18.1,6.78s10.57,5.9,14.91,10.27c5.22,5.25,9.57,11.49,13.43,17.78,3.36,5.48,6.34,11.23,8.78,17.19,3.2,7.82,5.69,16.01,6.98,24.37,.04,.29,.09,.57,.13,.86,.12,.84-.04-.38,.03,.22,.05,.42,.1,.85,.15,1.27,.03,.33,.07,.67,.09,1,.3,4.27,.19,8.58-.14,12.84-.84,10.6-3.34,21.72-7.95,31.34-5.13,10.72-12.52,20.5-20.82,28.97-16.75,17.09-38.35,29.28-61.56,35.02-12.02,2.97-24.39,4.12-36.75,3.39-7.65-.45-15.23-1.56-22.73-3.1-7.07-1.45-14.14-3.12-20.89-5.71-7.72-2.97-15.04-7.28-21.67-12.21-10.05-7.47-18.94-16.59-24.93-27.67-2.91-5.39-4.98-11.11-6.68-16.98s-3.08-11.97-3.78-18.04c-1.12-9.81-.7-19.83,.9-29.56,1.06-6.44,2.64-12.79,4.71-18.98,.68-2.03,1.41-4.04,2.2-6.02,.14-.36,.29-.72,.44-1.08,.05-.13,.29-.69,0-.02,.06-.14,.11-.27,.17-.41,.19-.44,.38-.88,.58-1.32,3.44-7.69,7.65-15.03,12.8-21.71,3.94-5.11,8.41-9.82,13.27-14.08,1.36-1.19,2.76-2.35,4.18-3.47,.07-.06,1.2-.91,.27-.21,.17-.13,.33-.26,.5-.38,1-.75,2.01-1.49,3.04-2.2,7.6-5.25,15.94-9.5,24.63-12.64,6.19-2.24,12.57-3.94,19.05-5.1,1.33-.24,2.08-1.86,1.75-3.08-.39-1.4-1.74-1.98-3.08-1.75Z"/>
    <path class="cls-9" d="M678.9,117.48c-3.75-2.13-6.98-4.8-10.04-7.84-1.69-1.68-2.94-3.7-4.19-5.71-1.45-2.33-2.79-4.73-4.02-7.18-2.26-4.5-4.41-9.39-4.82-14.47-.35-4.4,.59-8.83,2.68-12.71,4.32-8,12.89-12.45,21.91-11.76,8.4,.64,14.93,6.18,19.35,12.97,2.9,4.45,5.19,9.13,6.51,14.29,1.03,4.01,1.47,8.11,1.43,12.24-.03,3.22,4.97,3.22,5,0,.1-9.69-2.47-19.12-7.56-27.38-4.88-7.92-11.66-14.77-21.14-16.63-10.49-2.06-21.37,1.95-27.76,10.54-3.08,4.14-4.9,9.13-5.38,14.25-.53,5.61,1.01,11.12,3.18,16.24,2.52,5.95,5.65,12.09,9.73,17.13,3.38,4.18,7.93,7.68,12.58,10.32,2.8,1.59,5.32-2.73,2.52-4.32h0Z"/>
    <path class="cls-9" d="M691.52,115.45c-6.07-8.22-14-14.73-23.48-18.66-5.32-2.2-11.16-3.59-16.94-3.18s-10.95,2.34-15.46,5.57c-9.4,6.75-14.24,17.95-12.08,29.4,1.22,6.49,4.55,13.19,9.24,17.92,9.23,9.31,23.38,12.01,35.69,8.05,3.05-.98,1.75-5.81-1.33-4.82-9.5,3.05-20.36,1.81-28.31-4.5-1.28-1.01-2.5-2.15-3.56-3.39-.23-.27-.45-.55-.67-.82,.38,.47,.08,.1-.11-.15s-.38-.53-.57-.79c-1.97-2.82-3.56-5.86-4.58-9.02-1.42-4.38-1.83-9.04-.73-13.54,1.17-4.81,3.83-9.05,7.49-12.36s7.81-5.3,12.41-6.22c4.99-.99,10.26-.17,15.03,1.45,5.42,1.84,10.55,4.7,14.95,8.36,1.87,1.56,3.63,3.24,5.27,5.04,.68,.74,1.34,1.5,1.98,2.28,.31,.38,.62,.76,.92,1.15-.26-.33-.02-.02,.03,.04,.17,.23,.35,.46,.52,.69,.8,1.08,2.17,1.63,3.42,.9,1.07-.63,1.7-2.33,.9-3.42h0Z"/>
    <path class="cls-9" d="M833.12,91.08c1.81-4.93,3.63-9.87,6.23-14.44,.58-1.02,1.2-2.02,1.87-3,.3-.44,.61-.87,.92-1.3,.23-.31-.39,.48,.02-.02,.11-.13,.22-.27,.33-.4,.98-1.18,2.07-2.27,3.22-3.28,3.01-2.61,6.68-4.56,10.56-5.6,2.44-.66,4.94-.95,7.47-.88,1.72,.05,2.82,.17,4.41,.52s2.98,.84,4.41,1.42c.43,.18,.07,.03-.01,0,.17,.07,.34,.15,.51,.22,.28,.13,.56,.26,.84,.39,.71,.35,1.42,.72,2.1,1.12,1.43,.83,2.72,1.71,3.89,2.71,2.91,2.5,5.25,5.64,6.52,9.29,1.63,4.68,1.46,9.6,.35,14.38s-2.45,9.3-5.39,13.15c-2.48,3.26-5.78,5.78-9.43,7.6-2.88,1.44-.35,5.75,2.52,4.32,3.71-1.85,7.13-4.43,9.81-7.6,3.3-3.91,5.18-8.36,6.55-13.23,1.42-5.05,2.24-10.21,1.49-15.44s-3.04-9.79-6.44-13.61c-4.05-4.54-9.8-7.85-15.68-9.37-8.43-2.18-17.8-.27-24.91,4.67-9.22,6.41-13.24,16.87-16.97,27.04-.47,1.27,.52,2.74,1.75,3.08,1.39,.38,2.61-.47,3.08-1.75h0Z"/>
    <path class="cls-9" d="M868.07,111.19c4.29-8.42,11.86-14.87,21.08-17.21,8.87-2.26,18.27-.26,25.51,5.33,6.17,4.76,10.81,11.68,12.77,18.87,1.37,5.02,1.42,10.4-.69,15.23-1.65,3.76-4.33,6.91-7.4,9.59-1.43,1.25-2.23,1.84-3.81,2.93-2.1,1.45-4.26,2.78-6.56,3.87-4.61,2.17-9.65,3.32-14.58,3.61-3.2,.19-3.22,5.19,0,5,4.97-.29,9.9-1.29,14.51-3.17s8.42-4.29,12.17-7.22c8.07-6.3,13.39-15.5,12.18-26-1.09-9.39-6.08-18.25-13.04-24.57-7.85-7.11-18.14-10.49-28.67-9.02-11.91,1.67-22.34,9.58-27.77,20.23-1.46,2.86,2.85,5.39,4.32,2.52h0Z"/>
    <path class="cls-9" d="M705.94,106.15c2.87-1.3,5.65-2.43,8.78-3.55,3.82-1.37,7.72-2.56,11.66-3.54,8.97-2.25,18.04-3.26,27.27-3.6,8.26-.3,16.54-.03,24.66,1.68,9.6,2.02,18.65,5.82,26.83,11.22,15.45,10.21,27.28,25.09,37.88,40.04,3.08,4.35,6.06,8.78,8.5,13.52,2.3,4.46,4.14,9.12,5.69,13.89,2.54,7.85,4.46,15.91,6.25,23.95,2.81,12.66,5.21,25.42,7.33,38.22,.08,.47,.16,.95,.23,1.42,.22,1.33,1.87,2.08,3.08,1.75,1.42-.39,1.96-1.74,1.75-3.08-1.88-11.58-4.04-23.12-6.47-34.59-3.87-18.25-8.12-36.81-18.57-52.58-5.46-8.23-11.44-16.22-17.84-23.74-6.17-7.26-12.93-14-20.54-19.75s-16.79-10.6-26.31-13.45c-8.92-2.67-18.25-3.68-27.54-3.61-17.37,.13-34.5,2.89-50.61,9.53-1.52,.63-3.04,1.28-4.54,1.96-1.23,.56-1.53,2.34-.9,3.42,.74,1.27,2.19,1.46,3.42,.9h0Z"/>
    <path class="cls-9" d="M731.67,91.58c15.78-2.51,32.32-3.61,48.39-1.81,8.19,.92,16.33,2.72,23.98,5.81,.66,.27-.07-.04,.27,.11,.21,.09,.42,.18,.63,.27,.47,.21,.93,.42,1.4,.63,1.04,.49,2.06,1,3.08,1.54,2.55,1.37,5.01,2.93,7.37,4.61,9.22,6.55,17.26,14.85,24.47,23.52,10.29,12.37,18.95,26.01,26.36,40.28,8.21,15.82,13.86,32.89,16.81,50.47,.29,1.72,.55,3.44,.78,5.16,.18,1.34,1.9,2.07,3.08,1.75,1.44-.4,1.93-1.73,1.75-3.08-2.48-17.99-7.75-35.57-15.64-51.93-7.3-15.13-16.28-29.49-26.71-42.64-7.13-8.99-15.05-17.47-24.07-24.61-4.71-3.73-9.71-7.09-15.18-9.59-6.6-3.02-13.62-4.99-20.77-6.23-17.5-3.03-35.47-2.2-52.98,.27-1.44,.2-2.88,.42-4.32,.65-1.33,.21-2.08,1.88-1.75,3.08,.39,1.42,1.74,1.96,3.08,1.75h0Z"/>
    <path class="cls-9" d="M795.32,84.94c18.6,7.95,35.77,19.13,50.4,33.11,16.46,15.72,29.57,34.83,38.42,55.81,3.14,7.45,5.74,15.16,7.79,22.98,.82,3.11,5.64,1.79,4.82-1.33-4.43-16.87-11.39-33.11-20.62-47.91-13.15-21.1-30.9-39.17-51.7-52.76-8.43-5.5-17.33-10.26-26.59-14.21-1.24-.53-2.68-.37-3.42,.9-.62,1.05-.35,2.89,.9,3.42h0Z"/>
    <path class="cls-9" d="M752.85,222.23c.16,4.88,2.58,9.06,5.58,12.76,2.9,3.59,6.45,6.91,10.72,8.78,4.68,2.05,9.96,2.42,14.64,.16,3.88-1.87,6.76-5.51,8.42-9.4,2.29-5.36,2.37-11.29,2.01-17.02-.2-3.2-5.2-3.22-5,0,.45,7.2,.38,16.43-6.22,21.09s-14.81-.14-19.56-5.41c-2.73-3.03-5.47-6.73-5.6-10.96-.1-3.21-5.1-3.22-5,0h0Z"/>
    <g>
      <path class="cls-9" d="M789.52,176.62c-1.52,3.38-2.35,7.05-2.45,10.75-.02,.66,0,1.35,.26,1.96,.34,.8,1.08,1.37,1.87,1.74,2.93,1.38,6.84,.06,8.35-2.81,.83-1.59,.96-3.44,.97-5.23,.01-1-.01-2.03-.4-2.95-1.03-2.42-4.03-3.15-6.62-3.58"/>
      <path class="cls-9" d="M785.2,174.1c-1.74,3.93-2.81,7.91-3.09,12.22-.17,2.72,.27,5.43,2.28,7.43,1.79,1.79,4.18,2.61,6.65,2.84,4.07,.37,7.94-1.78,10.29-4.99,1.39-1.89,1.84-4.23,2.08-6.51,.21-1.96,.24-4.22-.39-6.1-.8-2.4-2.49-4.43-4.76-5.59-1.73-.88-3.54-1.4-5.45-1.72-1.36-.23-2.62-.22-3.85,.5-1.04,.61-2.03,1.8-2.3,2.99-.29,1.28-.23,2.72,.5,3.85,.66,1.03,1.73,2.09,2.99,2.3s2.52,.48,3.72,.96l-1.19-.5c.54,.23,1.04,.51,1.51,.86l-1.01-.78c.3,.24,.56,.49,.81,.78l-.78-1.01c.24,.31,.43,.63,.59,.98l-.5-1.19c.15,.39,.25,.78,.32,1.2l-.18-1.33c.18,1.42,.11,2.9-.08,4.32l.18-1.33c-.12,.76-.3,1.49-.59,2.2l.5-1.19c-.21,.46-.44,.87-.74,1.27l.78-1.01c-.32,.41-.68,.76-1.08,1.09l1.01-.78c-.47,.35-.96,.65-1.49,.89l1.19-.5c-.6,.25-1.22,.42-1.86,.51l1.33-.18c-.58,.07-1.15,.07-1.73,0l1.33,.18c-.51-.08-1-.21-1.48-.41l1.19,.5c-.4-.18-.76-.39-1.11-.65l1.01,.78c-.23-.19-.42-.39-.61-.61l.78,1.01c-.13-.18-.23-.36-.33-.56l.5,1.19c-.09-.24-.15-.46-.2-.71l.18,1.33c-.18-1.36,0-2.79,.17-4.14l-.18,1.33c.35-2.54,1.02-5.01,2.01-7.37l-.5,1.19c.07-.16,.14-.32,.21-.48,.56-1.27,.89-2.46,.5-3.85-.32-1.16-1.22-2.42-2.3-2.99-1.16-.61-2.57-.92-3.85-.5-1.16,.38-2.47,1.13-2.99,2.3h0Z"/>
    </g>
    <g>
      <path class="cls-9" d="M719.47,171.24c-.98,1.81-1.82,3.69-2.51,5.62-.74,2.08-1.31,4.38-.61,6.47s3.13,3.73,5.15,2.84c1.6-.71,2.28-2.59,2.64-4.31,.38-1.84,.59-3.77,.11-5.59s-1.74-3.52-3.53-4.1"/>
      <path class="cls-9" d="M715.16,168.71c-.91,1.7-1.69,3.46-2.42,5.24-.54,1.34-1.06,2.72-1.34,4.14-.77,3.93-.24,8.34,3.07,11.03,1.73,1.4,3.79,2.4,6.09,2.28s4.41-1.06,5.81-2.78c1.21-1.49,2.05-3.15,2.5-5.02s.73-3.69,.65-5.53c-.1-2.19-.61-4.46-1.83-6.32-1.4-2.12-3.24-3.56-5.63-4.41-1.17-.42-2.81-.11-3.85,.5s-2.03,1.8-2.3,2.99c-.64,2.8,.85,5.21,3.49,6.15,.14,.04,.27,.1,.4,.15l-1.19-.5c.33,.15,.63,.33,.92,.54l-1.01-.78c.4,.32,.75,.66,1.07,1.06l-.78-1.01c.35,.47,.63,.97,.86,1.52l-.5-1.19c.24,.63,.39,1.26,.48,1.93l-.18-1.33c.11,1.04,.06,2.06-.07,3.09l.18-1.33c-.17,1.18-.41,2.35-.87,3.45l.5-1.19c-.18,.39-.37,.75-.62,1.09l.78-1.01c-.21,.27-.44,.51-.7,.73l1.01-.78c-.22,.17-.45,.3-.7,.42l1.19-.5c-.25,.1-.49,.17-.75,.22l1.33-.18c-.32,.04-.63,.03-.95,0l1.33,.18c-.32-.06-.62-.15-.93-.28l1.19,.5c-.31-.14-.59-.31-.86-.51l1.01,.78c-.38-.3-.71-.63-1-1.01l.78,1.01c-.2-.28-.37-.57-.51-.88l.5,1.19c-.19-.45-.31-.91-.39-1.4l.18,1.33c-.09-.7-.08-1.39,0-2.09l-.18,1.33c.26-1.89,.95-3.7,1.68-5.45l-.5,1.19c.51-1.2,1.08-2.38,1.7-3.53,1.24-2.3,.65-5.55-1.79-6.84s-5.52-.67-6.84,1.79h0Z"/>
    </g>
    <polyline class="cls-2" points="743.63 208.23 738.51 202.74 723.5 197.61 718.37 197.61 741.44 208.23"/>
    <g class="cls-8">
      <path class="cls-4" d="M706.32,188.54c-5.82,0-11.63,.02-17.45,.03-1.21,0-2.49,.02-3.52,.65-2.62,1.6-1.86,5.55-.76,8.42,1.07,2.8,2.14,5.61,3.21,8.41,.32,.84,.65,1.69,1.12,2.46,.62,1.01,1.47,1.86,2.35,2.67,7.23,6.62,16.7,10.75,26.47,11.54,1.71,.14,3.7,.05,4.74-1.31,.53-.7,.69-1.6,1.09-2.37,1.11-2.14,3.71-2.91,5.99-3.71s4.79-2.28,4.95-4.68c.06-.84-.2-1.67-.49-2.45-2.47-6.6-8.06-11.95-14.76-14.12-1-.32-2.05-.6-2.88-1.23-1.16-.88-1.73-2.32-2.58-3.5s-2.36-2.2-3.7-1.62"/>
    </g>
    <path class="cls-3" d="M798.52,161.77c-.47,.73-1.28,2.23-1.43,4.28-.2,2.82,.98,4.89,1.43,5.6,2.07,.26,4.06-.5,5.16-2.03,.81-1.13,.89-2.35,.88-2.91-2.01-1.65-4.03-3.3-6.04-4.94Z"/>
    <path class="cls-3" d="M831.69,177.59c-1.3,2.2-2.63,4.77-3.84,7.69-.74,1.79-1.36,3.51-1.86,5.12,.35,2.59,.69,5.19,1.04,7.78,1.32-.84,5.39-3.65,7.14-9.06,1.01-3.12,.84-5.85,.61-7.44-1.03-1.37-2.05-2.73-3.08-4.1Z"/>
    <path class="cls-3" d="M840.26,233.12s-2.75,1.42,0,2.93-17.03,12.5-19.22,12.5,19.22-11.63,19.22-15.43Z"/>
    <g class="cls-8">
      <path class="cls-4" d="M802.73,213.06c-1.2,3.14-.8,4.94-.2,6.02,1.05,1.87,2.84,1.73,4.03,3.92,1.21,2.23-.15,3.31,.98,4.77,1.3,1.68,3.3,.81,8.74,2.16,.88,.22,1.76,.43,2.66,.49,1.19,.07,2.37-.15,3.53-.41,9.56-2.17,18.35-7.6,24.57-15.18,.3-.37,.14-.44,1.62-4.64,1.16-3.29,1.42-3.95,1.29-5.01-.24-2.01-1.44-1.9-2.26-4.27-1.09-3.18,.44-5.19-1.03-6.74-.62-.65-1.39-.82-2.3-.99-6.65-1.29-9.97-1.94-12.73-1.27-.87,.21-2.79,1.17-6.64,3.1-3.16,1.58-5.25,2.62-7.65,4.04-2.54,1.5-5.98,3.74-9.85,6.95"/>
    </g>
  </g>
  <text class="cls-5" transform="translate(1 291.94)"><tspan x="0" y="0">bee</tspan></text>
  <text class="cls-6" transform="translate(228.74 289.87)"><tspan x="0" y="0">haappy!</tspan></text>
</svg>